<svg xmlns="http://www.w3.org/2000/svg" viewBox="0 0 1228 478" width="1228" height="478">
  <path d="M 991.00 284.50 L 1020.00 198.50 L 991.00 284.50 Z" fill="white" stroke="none"/>
  <path d="M 236.00 301.50 L 167.00 180.50 L 236.00 301.50 Z" fill="white" stroke="none"/>
  <path d="M 246.50 213.00 L 171.50 186.00 L 246.50 213.00 Z" fill="white" stroke="none"/>
  <path d="M 428.00 285.50 L 420.00 196.50 L 428.00 285.50 Z" fill="white" stroke="none"/>
  <path d="M 675.00 283.50 L 587.50 199.00 L 675.00 283.50 Z" fill="white" stroke="none"/>
  <path d="M 850.00 284.50 L 878.00 198.50 L 850.00 284.50 Z" fill="white" stroke="none"/>
  <path d="M 584.00 283.50 L 556.00 203.50 L 584.00 283.50 Z" fill="white" stroke="none"/>
  <path d="M 434.50 269.00 L 422.00 211.50 L 434.50 269.00 Z" fill="white" stroke="none"/>
  <path d="M 207.50 241.00 L 179.50 221.00 L 207.50 241.00 Z" fill="white" stroke="none"/>
  <path d="M 218.50 244.00 L 208.00 219.50 L 218.50 244.00 Z" fill="white" stroke="none"/>
  <path d="M 738.00 284.50 L 720.00 221.50 L 738.00 284.50 Z" fill="white" stroke="none"/>
  <path d="M 790.00 283.50 L 813.00 220.50 L 790.00 283.50 Z" fill="white" stroke="none"/>
  <path d="M 927.00 284.50 L 914.00 220.50 L 927.00 284.50 Z" fill="white" stroke="none"/>
  <path d="M 508.00 284.50 L 537.00 221.50 L 508.00 284.50 Z" fill="white" stroke="none"/>
  <path d="M 266.50 251.00 L 227.50 224.00 L 266.50 251.00 Z" fill="white" stroke="none"/>
  <path d="M 262.50 229.00 L 253.50 225.00 L 262.50 229.00 Z" fill="white" stroke="none"/>
  <path d="M 255.50 276.00 L 170.50 227.00 L 255.50 276.00 Z" fill="white" stroke="none"/>
  <path d="M 735.50 272.00 L 727.00 232.50 L 735.50 272.00 Z" fill="white" stroke="none"/>
  <path d="M 852.50 272.00 L 844.00 232.50 L 852.50 272.00 Z" fill="white" stroke="none"/>
  <path d="M 933.50 246.00 L 905.50 243.00 L 933.50 246.00 Z" fill="white" stroke="none"/>
  <path d="M 993.50 272.00 L 985.00 232.50 L 993.50 272.00 Z" fill="white" stroke="none"/>
  <path d="M 276.50 259.00 L 275.00 251.50 L 276.50 259.00 Z" fill="white" stroke="none"/>
  <path d="M 267.50 271.00 L 242.50 259.00 L 267.50 271.00 Z" fill="white" stroke="none"/>
  <path d="M 272.50 283.00 L 282.00 271.50 L 272.50 283.00 Z" fill="white" stroke="none"/>
  <path d="M 232.50 297.00 L 204.50 285.00 L 232.50 297.00 Z" fill="white" stroke="none"/>
</svg>
